# xmcd
#
# Track frame offsets: 
#        150
#        674
#        22650
#        39411
#        55656
#        70883
#        89424
#        107699
#        122619
#        141107
#        153633
#        175963
#        193360
#        214668
#        230367
#        245932
#        261398
#        287488
#        299234
#        315919
#
# Disc length: 4429 seconds
#
# Revision: 0
# Processed by: cddbd v1.5.2PL0 Copyright (c) Steve Scherf et al.
# Submitted via: ExactAudioCopy v0.99pb4
#
DISCID=25114b14
DTITLE=Various Artist - prevue promo 1050A-3
DYEAR=2000
DGENRE=pop
TTITLE0=blank - data
TTITLE1=Huey Lewis and Gwyneth Paltrow - Crusin'
TTITLE2=Oscar de la Hoya - Run To Me
TTITLE3=Leann Rimes - Can't fight the Moonlight
TTITLE4=Phoenix Stone - Still Be Loving You
TTITLE5=Joy Enriquez - Tell Me How You Feel
TTITLE6=Nelly Furtado - I'm Like a Bird
TTITLE7=Mest - What's the Dillio(lyrics)
TTITLE8=U2 - Beautiful Day
TTITLE9=Mathew Ryan - Heartache Weather
TTITLE10=Indigenous - Rest Of My Days
TTITLE11=Chronic Future - Come Correct
TTITLE12=Creed - Are You Ready
TTITLE13=Papa Roach - Broken Home
TTITLE14=Mest - Drawing Board
TTITLE15=Vallejo - Into the New
TTITLE16=Bar 7 - 4 leaf clover
TTITLE17=Sonic Joyride - everything is Beautiful
TTITLE18=Limp Bizkit - My Generation
TTITLE19=Limp Bizkit - Rollin'
EXTD=
EXTT0=
EXTT1=
EXTT2=
EXTT3=
EXTT4=
EXTT5=
EXTT6=
EXTT7=
EXTT8=
EXTT9=
EXTT10=
EXTT11=
EXTT12=
EXTT13=
EXTT14=
EXTT15=
EXTT16=
EXTT17=
EXTT18=
EXTT19=
PLAYORDER=
